name 900006_16rea_lsw
datacolumns 54
datarows 7
range 1.1054166635000022 1.1689166633000025
cursor 1.0 1.0 0.0
keys m_key
wrap
enforce_loops no
enforce_constraints no
calc_derivatives 0.010583
event_color 1.000000 0.000000 1.000000
endheader

time	calcn_r_tx	calcn_r_ty	calcn_r_tz	calcn_r_r1	calcn_r_r2	calcn_r_r3	calcn_l_tx	calcn_l_ty	calcn_l_tz	calcn_l_r1	calcn_l_r2	calcn_l_r3	pelvis_tz	pelvis_tx	pelvis_ty	pelvis_tilt	pelvis_list	pelvis_rotation	hip_flexion_r	hip_adduction_r	hip_rotation_r	knee_angle_r	ankle_angle_r	subtalar_angle_r	mtp_angle_r	hip_flexion_l	hip_adduction_l	hip_rotation_l	knee_angle_l	ankle_angle_l	subtalar_angle_l	mtp_angle_l	lumbar_extension	lumbar_bending	lumbar_rotation	ground_force_px	ground_force_py	ground_force_pz	ground_force_vx	ground_force_vy	ground_force_vz	ground_force_px	ground_force_py	ground_force_pz	ground_force_vx	ground_force_vy	ground_force_vz	ground_torque_x	ground_torque_y	ground_torque_z	ground_torque_x	ground_torque_y	ground_torque_z	
      1.1054166635000022	      1.9433613990840104	      0.0398998552548486	     -0.2146423910240601	      2.2771962271499460	     -2.1221194790209879	     -3.6043445205141413	      2.2189473206995198	      0.0499834846726119	     -0.3403388419272138	     -1.5700836646516001	      4.7918963593189696	      2.3849668880459660	     -0.2530387243066926	      2.1766264806238338	      0.8298436995861120	      1.7285310876902720	      2.5796489257547739	     -0.0060907513927063	     -5.4967890040635599	      1.3315671308672428	     -0.2275274223361160	    -11.7596109005653240	     12.2123461930901960	      0.0000000000000000	      0.0000000000000000	     18.6463153565435500	      2.0770615778830499	     -5.2351461844614056	    -14.9124774536936310	     -3.2201690296489267	      0.0000000000000000	      0.0000000000000000	     -9.1369802063808407	     -1.8071495883172237	      0.9690059307697463	      2.0971563171218457	      0.0000000000000000	     -0.2254854981313406	     -2.5676456342144469	    433.8532289459489000	     -9.9569853597405569	      1.6672685932061999	      0.0000000000000000	     -0.2773816401934001	     -0.0000000000000003	     -0.0000000000000035	      0.0000000000000003	      0.0000000000000000	      1.1069597387196095	      0.0000000000000000	      0.0000000000000000	      0.0000000000000000	      0.0000000000000000	
      1.1159999968000023	      1.9436811251833650	      0.0402674454263847	     -0.2146718978404050	      2.1316594642921167	     -2.4307678588229993	     -4.0206628997963199	      2.2443590592393838	      0.0494201524673414	     -0.3406305883414118	     -1.8573455006636392	      5.0501061339360982	      3.9478345498840595	     -0.2533629033648243	      2.1844642937194818	      0.8282954115846651	      1.5917947578840477	      2.4456296889926383	     -0.2755307073874851	     -5.8770904647213618	      1.3597667005850356	     -0.2260638144733031	    -11.8595392047886610	     12.4198622748253950	      0.0000000000000000	      0.0000000000000000	     18.7950683542523580	      1.9452842177879666	     -5.5673906661986763	    -12.1907187403620850	     -4.4248428590387432	      0.0000000000000000	      0.0000000000000000	     -8.9326112822992876	     -1.7167668716427027	      1.4189156417040494	      2.0993380956709360	      0.0000000000000000	     -0.2250576402990558	      0.1960196514966772	    434.6772871692500600	    -10.9013813258118510	      1.6707057960701202	      0.0000000000000000	     -0.2778574266091670	      0.0000000000000004	     -0.0000000000000000	     -0.0000000000000001	      0.0000000000000000	      1.1292659198746235	      0.0000000000000000	      0.0000000000000000	      0.0000000000000000	      0.0000000000000000	
      1.1265833301000023	      1.9440426492006881	      0.0407448498301331	     -0.2146395869603341	      1.9711891879978760	     -2.7556403383866428	     -4.4963094744949137	      2.2687671986508544	      0.0492277146418398	     -0.3407960093099998	     -2.1265566593669223	      5.2257843882780470	      5.6645598837410009	     -0.2537895079534676	      2.1923876670807907	      0.8266832249782474	      1.4519653006499604	      2.2642981562551223	     -0.5551946023417732	     -6.2604358352513527	      1.4157195421513529	     -0.2379661685425157	    -11.9510130039971450	     12.5644886687894990	      0.0000000000000000	      0.0000000000000000	     18.9564545903659830	      1.7828921460649088	     -5.8873190299522626	     -9.6859195422534583	     -5.2587504890458519	      0.0000000000000000	      0.0000000000000000	     -8.7068447205892490	     -1.5493666796349634	      1.9124658468572437	      2.1013024425377953	      0.0000000000000000	     -0.2246088571178122	      3.3008420595631760	    434.6871761917025800	    -12.1796673324062080	      1.6747904980182402	      0.0000000000000000	     -0.2784025852756820	     -0.0000000000000001	      0.0000000000000004	     -0.0000000000000000	      0.0000000000000000	      1.1428707986081434	      0.0000000000000000	      0.0000000000000000	     -0.0000000000000000	      0.0000000000000000	
      1.1371666634000024	      1.9444780304198850	      0.0413315010983025	     -0.2146190768260966	      1.7986277958512229	     -3.1018129195726876	     -5.0236685624810482	      2.2920317268038741	      0.0492538819506218	     -0.3408694217854323	     -2.3556111915537379	      5.2932771162994978	      7.5239187629481110	     -0.2543122872346421	      2.2004020373728870	      0.8250328739135555	      1.3211925290700481	      2.0462834109706440	     -0.8383134240851633	     -6.6566348245568099	      1.4944369468871461	     -0.2739706285172777	    -12.0402965596489970	     12.6580061687699810	      0.0000000000000000	      0.0000000000000000	     19.1280764141118950	      1.6004485456861421	     -6.1626523347341946	     -7.4435889231094290	     -5.6945912589628636	      0.0000000000000000	      0.0000000000000000	     -8.4752983647123763	     -1.3213799704692470	      2.4390204476690718	      2.1031194872033181	      0.0000000000000000	     -0.2242291249652350	      6.5784049215132150	    434.3149389057186300	    -13.7098542243321170	      1.6794748364466081	      0.0000000000000000	     -0.2789623426108532	     -0.0000000000000000	     -0.0000000000000001	      0.0000000000000000	      0.0000000000000000	      1.1437044584460849	      0.0000000000000000	      0.0000000000000000	      0.0000000000000000	      0.0000000000000000	
      1.1477499967000024	      1.9449949344771897	      0.0420264466603638	     -0.2146478580110998	      1.6163644152301415	     -3.4583192824653208	     -5.5944793591055255	      2.3139855198841404	      0.0493511163247740	     -0.3408716694353196	     -2.5263621498430697	      5.2321617510484160	      9.4788769350109039	     -0.2549373643376511	      2.2085318428218437	      0.8233646263111474	      1.2075206940950767	      1.8094489501360906	     -1.1101504474632211	     -7.0729570102331323	      1.5837705846247139	     -0.3364356337012608	    -12.1381453616498050	     12.7191063243603320	      0.0000000000000000	      0.0000000000000000	     19.3071561718679340	      1.4177787987207136	     -6.3537942998866717	     -5.5005936038453047	     -5.7461505065917997	      0.0000000000000000	      0.0000000000000000	     -8.2430450551464922	     -1.0567177848813967	      2.9721958822531009	      2.1048825860226916	      0.0000000000000000	     -0.2239640515964861	      9.8994771290290053	    433.8282622299461200	    -15.1954728051561570	      1.6846281453508656	      0.0000000000000000	     -0.2794802511649340	      0.0000000000000000	     -0.0000000000000000	     -0.0000000000000000	      0.0000000000000000	      1.1533387273826745	      0.0000000000000000	      0.0000000000000000	      0.0000000000000000	      0.0000000000000000	
      1.1583333300000025	      1.9455795967799376	      0.0428324176969780	     -0.2147418046107684	      1.4264618733344725	     -3.8085476126334274	     -6.1984368786640207	      2.3344695426902491	      0.0493898092043503	     -0.3408321525139339	     -2.6247422848391100	      5.0289590475718464	     11.4519998433212710	     -0.2556662623424902	      2.2168093735786600	      0.8216904531599290	      1.1138289335325926	      1.5734039158054465	     -1.3566331704064314	     -7.5105302687899549	      1.6696537819781028	     -0.4208284348665785	    -12.2603905150752560	     12.7729931327886210	      0.0000000000000000	      0.0000000000000000	     19.4918353525137850	      1.2538872779902668	     -6.4229510454157150	     -3.8817886266210491	     -5.4669119936234161	      0.0000000000000000	      0.0000000000000000	     -8.0058775757075491	     -0.7823047542167253	      3.4832792003668529	      2.1066495882353888	      0.0000000000000000	     -0.2238176758776251	     13.2073461411952400	    433.6907001580539700	    -16.4682361561328140	      1.6901278814508309	      0.0000000000000000	     -0.2799259675264126	     -0.0000000000000000	      0.0000000000000000	     -0.0000000000000000	      0.0000000000000000	      1.1843413849764035	      0.0000000000000000	      0.0000000000000000	     -0.0000000000000000	      0.0000000000000000	
      1.1689166633000025	      1.9462258683670874	      0.0437544843305322	     -0.2149251082336657	      1.2299853923575768	     -4.1463544912938550	     -6.8219315339783577	      2.3533477513651855	      0.0492550060773237	     -0.3407988206564069	     -2.6401386272841321	      4.6759773623334588	     13.3501947613846510	     -0.2564798064382915	      2.2252610458734314	      0.8200156362550888	      1.0383239777735802	      1.3528439743239196	     -1.5759164030086812	     -7.9610552894324975	      1.7416788297333863	     -0.5203622277182457	    -12.4267357561068670	     12.8475707189675940	      0.0000000000000000	      0.0000000000000000	     19.6818290696433240	      1.1162178594601315	     -6.3451091358275340	     -2.6015340502051179	     -4.9350351566384676	      0.0000000000000000	      0.0000000000000000	     -7.7545016813904031	     -0.5211148164769331	      3.9597693501346876	      2.1084182517757908	      0.0000000000000000	     -0.2238043529120883	     16.5013246705209940	    434.6942402584478500	    -17.5573341138530420	      1.6958329279397475	      0.0000000000000000	     -0.2802953215350018	     -0.0000000000000000	     -0.0000000000000000	      0.0000000000000000	      0.0000000000000000	      1.2250522859108934	      0.0000000000000000	      0.0000000000000000	     -0.0000000000000000	      0.0000000000000000	
